# xmcd
#
# Track frame offsets:
#	151
#	14229
#	33370
#	53509
#	70850
#	88853
#	107294
#	120476
#	133305
#	165959
#	182581
#	200330
#	220305
#	236474
#
# Disc length: 3628 seconds
#
# Revision: 0
# Processed by: cddbd v1.5.1PL0 Copyright (c) Steve Scherf et al.
# Submitted via: audiograbber 1.83.01
#
DISCID=b90e2a0e
DTITLE=Jonathan Böttcher - hereinspaziert
DYEAR=1999
DGENRE=Kinderlieder
TTITLE0=Hereinspaziert
TTITLE1=Der Clown Bam Bam Bu
TTITLE2=Wir sind die Kinder aus dem Abenteuerland
TTITLE3=Mit meinem Gott kann ich über Mauern springen
TTITLE4=Ich hab 'nen kleinen Hund
TTITLE5=Dass du einzigartig bist
TTITLE6=Max Nerverich
TTITLE7=Das Freundschaftsbäumchen
TTITLE8=Herr von Ribbeck auf Ribbeck im Havelland
TTITLE9=Gott hat die Welt gemacht
TTITLE10=Muttertagslied
TTITLE11=Sei willkommen hier auf Erden
TTITLE12=Abendlied
TTITLE13=Bonus Track
EXTD=
EXTT0=
EXTT1=
EXTT2=
EXTT3=
EXTT4=
EXTT5=
EXTT6=
EXTT7=
EXTT8=
EXTT9=
EXTT10=
EXTT11=
EXTT12=
EXTT13=
PLAYORDER=
